<svg viewBox="230 -71 465 465" fill="none" xmlns="http://www.w3.org/2000/svg">
<path d="M549.92 159.934C553.767 161.891 665.787 303.361 677.025 319.455C670.227 319.999 660.651 319.879 653.649 319.922L609.814 319.871C554.492 319.988 531.866 297.471 500.92 255.894C495.033 247.98 486.481 239.123 482 230.481C488.185 222.215 503.266 207.931 511.122 199.765L535.054 174.818C539.668 170.026 544.983 164.233 549.92 159.934Z" fill="#EAF5FF"/>
<path d="M584.85 2L689.483 2.06295L574.399 121.975C567.078 130.418 557.767 139.573 549.994 148.18C546.131 144.591 540.232 137.05 536.812 132.82L518.31 109.94C512.179 102.332 499.486 87.6831 494.93 80.5031C499.995 74.2904 508.054 67.0308 513.825 61.2909C524.077 51.004 534.387 40.7758 544.755 30.6078C553.025 22.4673 563.173 11.7752 572.314 4.52802C574.648 2.6785 581.625 2.15786 584.85 2Z" fill="#EAF5FF"/>
<path d="M364.206 199.474C371.771 193.021 381.484 182.31 388.702 175.108L406.108 157.679C409.157 154.631 412.912 151.2 415.656 148.018C413.699 144.389 400.64 129.289 397.078 124.886C387.874 113.509 378.478 101.925 369.231 90.5747C366.968 87.8948 362.651 82.9514 360.595 79.9058L360.215 79.3228L358.017 76.9273C357.947 76.8267 357.871 76.7218 357.791 76.6128C357.685 76.4681 357.57 76.3163 357.448 76.1587C355.952 74.2236 353.374 71.3978 351.968 69.7808C350.619 68.0884 349.037 66.2976 347.531 64.5552C347.28 64.2646 347.031 63.9752 346.786 63.688C346.541 63.4013 346.3 63.1165 346.063 62.8345C341.738 58.0798 332.998 47.9583 329.288 42.8716C328.875 42.4872 328.464 42.0954 328.058 41.6978C327.854 41.4989 327.651 41.2989 327.449 41.0972C324.825 38.475 322.332 35.6242 319.899 32.8677C308.481 19.9309 293.322 8.91146 278.207 0.759297C291.515 0.321005 304.828 0.0769928 318.142 0.0268747C320.562 0.0177618 322.983 0.0153394 325.404 0.0190622C329.035 0.024646 332.667 0.0441709 336.298 0.0786325C337.695 0.0865206 339.114 0.086917 340.549 0.0825388C344.854 0.0694022 349.301 0.0148723 353.729 0.00246063C355.206 -0.00167614 356.68 -0.000947779 358.146 0.00734344C362.544 0.0322181 366.87 0.126664 370.963 0.374531C389.221 1.48019 409.199 10.0813 422.422 22.7017C428.876 28.863 435.111 36.6838 440.936 43.5679C442.776 45.7447 450.129 53.7746 451.278 55.857C458.342 63.5641 466.318 73.5845 473.051 81.7388C484.26 95.0825 495.354 108.526 506.327 122.067C510.614 127.289 529.223 149.029 531.453 153.65C527.813 158.861 520.525 165.697 515.957 170.412L487.983 199.444L459.748 228.876C457.746 230.931 452.622 236.726 450.735 238.056L450.736 238.057C440.451 249.452 429.105 260.3 418.596 271.542C395.584 296.16 373.169 320.871 336.859 322.203C323.248 322.702 309.735 322.479 296.129 322.462L230 322.2C250.273 308.358 263.14 297.397 280.984 280.742C293.15 269.518 305.053 258.013 316.684 246.237L317.169 245.918C319.818 243.638 322.103 241.165 324.516 238.64L326.857 236.291C331.888 231.872 336.55 226.663 341.344 221.934C348.875 214.505 356.884 207.072 364.206 199.474Z" fill="url(#paint0_linear_29_163)"/>
<rect x="162" y="74" width="168" height="21" rx="10.5" fill="url(#paint1_linear_29_163)"/>
<rect x="114" y="125" width="246" height="21" rx="10.5" fill="url(#paint2_linear_29_163)"/>
<rect x="180" y="176" width="171" height="21" rx="10.5" fill="#3263F7"/>
<rect x="162" y="227" width="137" height="21" rx="10.5" fill="#3472F9"/>
<rect x="54" y="125" width="37" height="21" rx="10.5" fill="#7F3CEF"/>
<rect x="114" y="227" width="45" height="21" rx="10.5" fill="#3472F9"/>
<defs>
<linearGradient id="paint0_linear_29_163" x1="380.727" y1="119.5" x2="380.727" y2="271" gradientUnits="userSpaceOnUse">
<stop stop-color="#8E45EF"/>
<stop offset="1" stop-color="#03A0FB"/>
</linearGradient>
<linearGradient id="paint1_linear_29_163" x1="162" y1="84.5" x2="330" y2="84.5" gradientUnits="userSpaceOnUse">
<stop stop-color="#7F3CEF"/>
<stop offset="1" stop-color="#492289"/>
</linearGradient>
<linearGradient id="paint2_linear_29_163" x1="114" y1="135.5" x2="360" y2="135.5" gradientUnits="userSpaceOnUse">
<stop stop-color="#7F3CEF"/>
<stop offset="1" stop-color="#492289"/>
</linearGradient>
</defs>
</svg>