<svg width="840" height="484" viewBox="0 0 840 484" fill="none" xmlns="http://www.w3.org/2000/svg">
<path d="M253.005 404.378C274.758 401.37 294.804 416.637 297.679 438.403C300.554 460.169 285.16 480.111 263.371 482.855C241.771 485.569 222.029 470.343 219.179 448.764C216.329 427.189 231.44 407.36 253.005 404.378ZM261.671 470.575C276.476 468.814 287.066 455.416 285.352 440.608C283.639 425.8 270.268 415.17 255.452 416.836C240.566 418.506 229.872 431.951 231.593 446.824C233.315 461.698 246.797 472.349 261.671 470.575Z" fill="#EAF5FF"/>
<path d="M573.693 405.449C585.466 405.049 602.716 404.278 614.303 407.381C631.005 411.855 637.173 433.832 626.221 446.924C622.668 451.168 619.878 452.494 614.808 454.927C617.171 459.78 620.703 463.953 623.92 468.296C627.091 472.656 630.225 477.041 633.326 481.45L621.002 481.583C619.107 481.301 618.257 480.493 617.134 479.022C611.67 471.86 607.123 463.928 601.24 457.069C595.449 456.92 589.284 457.015 583.468 457.007C583.497 465.254 583.472 473.506 583.385 481.757C579.692 481.939 574.763 481.769 570.982 481.749C570.157 475.781 569.788 411.261 571.032 406.155C572.101 405.279 572.118 405.541 573.693 405.449ZM583.854 445.374C588.584 445.395 593.401 445.449 598.127 445.503C605.423 445.59 608.822 446.307 614.696 441.483C617.619 438.06 619.12 434.454 618.693 429.895C617.076 412.498 595.337 418.291 583.394 417.205C583.423 424.827 583.099 438.055 583.854 445.374Z" fill="#EAF5FF"/>
<path d="M382.431 446.455C389.93 434.744 398.907 417.628 407.661 406.578C409.474 404.291 418.229 405.446 421.492 405.757C421.923 410.703 421.674 416.757 421.657 421.797L421.72 442.97C421.674 454.313 422.134 470.55 421.421 481.466C417.276 481.62 413.13 481.715 408.982 481.752C408.352 469.635 408.667 454.707 408.624 442.373C408.507 437.33 408.385 432.054 408.936 427.056C405.6 432.087 388.218 461.077 385.066 463.115C384.008 463.799 382.803 464.094 381.566 463.774C380.129 463.401 378.931 462.283 378.001 461.168C374.982 457.558 372.553 452.858 370.115 448.822C365.804 441.569 361.427 434.358 356.985 427.184C357.131 441.018 356.882 454.897 356.972 468.735C356.999 472.967 357.017 477.256 356.798 481.475C352.807 481.769 348.309 481.665 344.267 481.657C343.604 476.373 343.91 469.166 343.913 463.712L343.965 433.069C343.99 427.462 343.523 411.007 344.39 406.518C345.313 405.577 346.364 405.629 347.738 405.446C350.397 405.326 356.877 404.715 358.485 407.087C361.307 411.249 363.872 415.717 366.484 420.027C371.854 428.805 377.169 437.616 382.431 446.455Z" fill="#EAF5FF"/>
<path d="M475.42 405.396C480.693 405.057 520.179 404.979 523.744 406.03C525.12 408.267 524.544 414.308 524.448 417.205L483.574 417.52C483.698 424.18 483.603 431.031 483.715 437.827L519.349 437.935C519.59 441.59 519.445 445.66 519.395 449.357C515.129 449.261 486.115 449.125 483.711 449.696L483.657 450.38C483.474 456.655 483.134 463.559 484.046 469.722C489.763 469.444 520.411 469.237 524.519 470.169C525.729 472.208 525.041 478.777 524.896 481.471C507.187 481.86 488.818 481.661 470.996 481.877C470.126 474.276 470.619 456.182 470.607 447.72C470.598 441.669 470.101 410.297 471.154 406.319C472.406 405.459 473.844 405.53 475.42 405.396Z" fill="#EAF5FF"/>
<path d="M788.153 405.445C793.841 405.209 834.048 404.901 837.717 406.083C839.159 408.2 838.595 414.436 838.508 417.246C826.453 417.569 809.685 417.694 797.7 417.362C797.588 424.159 797.596 430.955 797.725 437.748C808.458 438.37 821.877 437.81 832.929 437.939C833.041 441.789 833.061 445.643 832.991 449.497C821.433 448.821 809.61 449.924 798.62 449.302L798.202 449.431C797.24 450.645 797.634 466.886 797.692 469.58C803.686 469.564 834.666 469.294 838.297 470.43C839.74 472.751 838.969 478.507 838.782 481.441C832.274 481.736 824.235 481.537 817.611 481.574C806.721 481.706 795.83 481.781 784.94 481.794C784.766 464.939 784.725 448.08 784.812 431.221C784.816 427.043 784.463 408.762 785.363 406.128C786.445 405.342 786.677 405.561 788.153 405.445Z" fill="#EAF5FF"/>
<path d="M35.6776 433.886C39.5653 426.774 49.0826 413.798 54.3561 407.016C56.2228 404.615 66.4647 405.832 70.2164 405.896C62.0058 417.739 51.691 431.2 44.1358 443.26C42.7027 445.548 69.7592 477.206 69.9727 481.512C65.2443 481.566 60.4334 481.686 55.7175 481.437C53.9109 479.551 49.6663 473.406 47.9791 471.023L35.4256 453.389C29.3983 461.25 20.6586 474.823 14.8375 481.429C10.4109 481.905 4.55881 481.537 0 481.383C6.63911 471.213 19.3591 453.268 27.1729 443.691C22.8949 435.676 12.9469 424.088 7.68324 416.098C5.94967 413.467 1.92384 408.536 0.914619 405.691C14.0167 407.304 13.3269 400.725 22.9998 416.007C26.0797 420.872 32.0261 429.19 35.6776 433.886Z" fill="#EAF5FF"/>
<path d="M147.168 404.565C159.764 402.419 170.702 409.145 179.435 417.288C177.41 419.745 173.752 423.417 171.449 425.974C166.833 422.211 163.631 419.24 157.622 417.619C121.667 407.912 109.853 461.648 144.546 470.31C152.886 472.395 159.043 470.128 166.156 465.78C167.713 464.471 169.666 463.095 171.321 461.864C173.01 463.174 177.437 467.931 179.306 469.767C165.243 485.229 140.556 487.521 125.077 474.077C97.6694 450.272 110.6 408.147 147.168 404.565Z" fill="#EAF5FF"/>
<path d="M709.401 404.554C722.041 403.452 732.869 408.064 741.442 417.238C739.676 419.617 735.99 423.542 733.872 425.771C729.826 422.937 725.498 419.223 720.793 417.802C685.324 407.066 671.424 459.924 705.463 469.941C714.463 472.585 720.793 470.153 728.661 465.747C730.46 464.425 732.272 462.921 734.017 461.516C736.998 464.786 738.192 466.634 741.674 469.523C726.244 487.82 696.649 487.02 681.639 468.561C666.748 450.252 670.951 421.287 692.031 409.691C697.868 406.481 702.851 405.391 709.401 404.554Z" fill="#EAF5FF"/>
<path d="M549.92 159.934C553.767 161.891 665.787 303.361 677.025 319.455C670.227 319.999 660.651 319.879 653.649 319.922L609.814 319.871C554.492 319.988 531.866 297.471 500.92 255.894C495.033 247.98 486.481 239.123 482 230.481C488.185 222.215 503.266 207.931 511.122 199.765L535.054 174.818C539.668 170.026 544.983 164.233 549.92 159.934Z" fill="#EAF5FF"/>
<path d="M584.85 2L689.483 2.06295L574.399 121.975C567.078 130.418 557.767 139.573 549.994 148.18C546.131 144.591 540.232 137.05 536.812 132.82L518.31 109.94C512.179 102.332 499.486 87.6831 494.93 80.5031C499.995 74.2904 508.054 67.0308 513.825 61.2909C524.077 51.004 534.387 40.7758 544.755 30.6078C553.025 22.4673 563.173 11.7752 572.314 4.52802C574.648 2.6785 581.625 2.15786 584.85 2Z" fill="#EAF5FF"/>
<path d="M364.206 199.474C371.771 193.021 381.484 182.31 388.702 175.108L406.108 157.679C409.157 154.631 412.912 151.2 415.656 148.018C413.699 144.389 400.64 129.289 397.078 124.886C387.874 113.509 378.478 101.925 369.231 90.5747C366.968 87.8948 362.651 82.9514 360.595 79.9058L360.215 79.3228L358.017 76.9273C357.947 76.8267 357.871 76.7218 357.791 76.6128C357.685 76.4681 357.57 76.3163 357.448 76.1587C355.952 74.2236 353.374 71.3978 351.968 69.7808C350.619 68.0884 349.037 66.2976 347.531 64.5552C347.28 64.2646 347.031 63.9752 346.786 63.688C346.541 63.4013 346.3 63.1165 346.063 62.8345C341.738 58.0798 332.998 47.9583 329.288 42.8716C328.875 42.4872 328.464 42.0954 328.058 41.6978C327.854 41.4989 327.651 41.2989 327.449 41.0972C324.825 38.475 322.332 35.6242 319.899 32.8677C308.481 19.9309 293.322 8.91146 278.207 0.759297C291.515 0.321005 304.828 0.0769928 318.142 0.0268747C320.562 0.0177618 322.983 0.0153394 325.404 0.0190622C329.035 0.024646 332.667 0.0441709 336.298 0.0786325C337.695 0.0865206 339.114 0.086917 340.549 0.0825388C344.854 0.0694022 349.301 0.0148723 353.729 0.00246063C355.206 -0.00167614 356.68 -0.000947779 358.146 0.00734344C362.544 0.0322181 366.87 0.126664 370.963 0.374531C389.221 1.48019 409.199 10.0813 422.422 22.7017C428.876 28.863 435.111 36.6838 440.936 43.5679C442.776 45.7447 450.129 53.7746 451.278 55.857C458.342 63.5641 466.318 73.5845 473.051 81.7388C484.26 95.0825 495.354 108.526 506.327 122.067C510.614 127.289 529.223 149.029 531.453 153.65C527.813 158.861 520.525 165.697 515.957 170.412L487.983 199.444L459.748 228.876C457.746 230.931 452.622 236.726 450.735 238.056L450.736 238.057C440.451 249.452 429.105 260.3 418.596 271.542C395.584 296.16 373.169 320.871 336.859 322.203C323.248 322.702 309.735 322.479 296.129 322.462L230 322.2C250.273 308.358 263.14 297.397 280.984 280.742C293.15 269.518 305.053 258.013 316.684 246.237L317.169 245.918C319.818 243.638 322.103 241.165 324.516 238.64L326.857 236.291C331.888 231.872 336.55 226.663 341.344 221.934C348.875 214.505 356.884 207.072 364.206 199.474Z" fill="url(#paint0_linear_29_163)"/>
<rect x="162" y="74" width="168" height="21" rx="10.5" fill="url(#paint1_linear_29_163)"/>
<rect x="114" y="125" width="246" height="21" rx="10.5" fill="url(#paint2_linear_29_163)"/>
<rect x="180" y="176" width="171" height="21" rx="10.5" fill="#3263F7"/>
<rect x="162" y="227" width="137" height="21" rx="10.5" fill="#3472F9"/>
<rect x="54" y="125" width="37" height="21" rx="10.5" fill="#7F3CEF"/>
<rect x="114" y="227" width="45" height="21" rx="10.5" fill="#3472F9"/>
<defs>
<linearGradient id="paint0_linear_29_163" x1="380.727" y1="119.5" x2="380.727" y2="271" gradientUnits="userSpaceOnUse">
<stop stop-color="#8E45EF"/>
<stop offset="1" stop-color="#03A0FB"/>
</linearGradient>
<linearGradient id="paint1_linear_29_163" x1="162" y1="84.5" x2="330" y2="84.5" gradientUnits="userSpaceOnUse">
<stop stop-color="#7F3CEF"/>
<stop offset="1" stop-color="#492289"/>
</linearGradient>
<linearGradient id="paint2_linear_29_163" x1="114" y1="135.5" x2="360" y2="135.5" gradientUnits="userSpaceOnUse">
<stop stop-color="#7F3CEF"/>
<stop offset="1" stop-color="#492289"/>
</linearGradient>
</defs>
</svg>
