<svg width="635" height="323" viewBox="54 0 635 323" fill="none" xmlns="http://www.w3.org/2000/svg">
<path d="M549.92 159.934C553.767 161.891 665.787 303.361 677.025 319.455C670.227 319.999 660.651 319.879 653.649 319.922L609.814 319.871C554.492 319.988 531.866 297.471 500.92 255.894C495.033 247.98 486.481 239.123 482 230.481C488.185 222.215 503.266 207.931 511.122 199.765L535.054 174.818C539.668 170.026 544.983 164.233 549.92 159.934Z" fill="#222889"/>
<path d="M584.85 2L689.483 2.06295L574.399 121.975C567.078 130.418 557.767 139.573 549.994 148.18C546.131 144.591 540.232 137.05 536.812 132.82L518.31 109.94C512.179 102.332 499.486 87.6831 494.93 80.5031C499.995 74.2904 508.054 67.0308 513.825 61.2909C524.077 51.004 534.387 40.7758 544.755 30.6078C553.025 22.4673 563.173 11.7752 572.314 4.52802C574.648 2.6785 581.625 2.15786 584.85 2Z" fill="#222889"/>
<path d="M336.298 0.078778C347.476 0.141887 360.047 -0.286311 370.963 0.374676C389.221 1.48033 409.199 10.0814 422.422 22.7018C428.876 28.8631 435.111 36.684 440.936 43.568C442.776 45.7452 450.13 53.7752 451.278 55.8571C458.342 63.5642 466.319 73.5837 473.051 81.738C484.26 95.0817 495.354 108.525 506.327 122.066C510.614 127.287 529.223 149.029 531.453 153.65C527.813 158.861 520.525 165.696 515.957 170.411L487.983 199.444L459.748 228.876C457.746 230.932 452.622 236.726 450.735 238.056L450.736 238.057C440.451 249.452 429.105 260.299 418.596 271.542C395.584 296.16 373.169 320.87 336.859 322.202C323.248 322.701 309.735 322.479 296.129 322.463L230 322.2C250.273 308.358 263.14 297.397 280.984 280.742C293.15 269.518 305.053 258.012 316.684 246.236L317.169 245.919C319.818 243.638 322.103 241.165 324.516 238.64L326.857 236.291C331.888 231.872 336.55 226.663 341.344 221.934C348.876 214.505 356.884 207.073 364.207 199.474C364.149 199.888 364.101 200.219 364.068 200.507V200.508C364.101 200.22 364.149 199.89 364.207 199.475C371.772 193.022 381.484 182.31 388.702 175.108L406.108 157.678C409.157 154.63 412.912 151.201 415.656 148.018C413.7 144.39 400.64 129.289 397.078 124.886C387.873 113.509 378.478 101.924 369.231 90.5739C366.818 87.7152 362.067 82.282 360.215 79.3229L358.018 76.9274C357.692 76.4595 357.251 75.8942 356.748 75.2809C356.497 74.9741 356.229 74.6556 355.953 74.3307C355.677 74.006 355.393 73.6749 355.105 73.3444C354.343 72.4671 353.565 71.5898 352.893 70.8298C352.552 70.4451 352.238 70.0913 351.968 69.7809C350.475 67.9073 348.696 65.9124 347.052 63.9967C346.963 63.8934 346.874 63.791 346.786 63.6882L346.063 62.8337C341.739 58.079 332.998 47.9585 329.288 42.8717C325.979 39.7954 322.893 36.2594 319.899 32.8669C308.481 19.9302 293.321 8.91155 278.207 0.759442C297.564 0.121925 316.932 -0.105021 336.298 0.078778Z" fill="url(#paint0_linear_29_164)"/>
<rect x="162" y="74" width="168" height="21" rx="10.5" fill="url(#paint1_linear_29_164)"/>
<rect x="114" y="125" width="246" height="21" rx="10.5" fill="url(#paint2_linear_29_164)"/>
<rect x="180" y="176" width="171" height="21" rx="10.5" fill="#3263F7"/>
<rect x="162" y="227" width="137" height="21" rx="10.5" fill="#3472F9"/>
<rect x="54" y="125" width="37" height="21" rx="10.5" fill="#7F3CEF"/>
<rect x="114" y="227" width="45" height="21" rx="10.5" fill="#3472F9"/>
<defs>
<linearGradient id="paint0_linear_29_164" x1="380.727" y1="119.5" x2="380.727" y2="270.999" gradientUnits="userSpaceOnUse">
<stop stop-color="#8E45EF"/>
<stop offset="1" stop-color="#03A0FB"/>
</linearGradient>
<linearGradient id="paint1_linear_29_164" x1="162" y1="84.5" x2="330" y2="84.5" gradientUnits="userSpaceOnUse">
<stop stop-color="#7F3CEF"/>
<stop offset="1" stop-color="#492289"/>
</linearGradient>
<linearGradient id="paint2_linear_29_164" x1="114" y1="135.5" x2="360" y2="135.5" gradientUnits="userSpaceOnUse">
<stop stop-color="#7F3CEF"/>
<stop offset="1" stop-color="#492289"/>
</linearGradient>
</defs>
</svg>
